<?xml version="1.0" encoding="UTF-8" standalone="no"?>
<!-- Created with Inkscape (http://www.inkscape.org/) -->

<svg
   xmlns:dc="http://purl.org/dc/elements/1.1/"
   xmlns:cc="http://creativecommons.org/ns#"
   xmlns:rdf="http://www.w3.org/1999/02/22-rdf-syntax-ns#"
   xmlns:svg="http://www.w3.org/2000/svg"
   xmlns="http://www.w3.org/2000/svg"
   xmlns:sodipodi="http://sodipodi.sourceforge.net/DTD/sodipodi-0.dtd"
   xmlns:inkscape="http://www.inkscape.org/namespaces/inkscape"
   width="65.897125mm"
   height="14.03507mm"
   viewBox="0 0 65.897125 14.03507"
   version="1.1"
   id="svg8"
   inkscape:version="0.92.3 (2405546, 2018-03-11)"
   sodipodi:docname="task.svg">
  <defs
     id="defs2">
    <marker
       inkscape:stockid="Arrow1Mend"
       orient="auto"
       refY="0"
       refX="0"
       id="Arrow1Mend"
       style="overflow:visible"
       inkscape:isstock="true">
      <path
         id="path1040"
         d="M 0,0 5,-5 -12.5,0 5,5 Z"
         style="fill:#000000;fill-opacity:1;fill-rule:evenodd;stroke:#000000;stroke-width:1.00000003pt;stroke-opacity:1"
         transform="matrix(-0.4,0,0,-0.4,-4,0)"
         inkscape:connector-curvature="0" />
    </marker>
    <marker
       inkscape:stockid="Arrow1Mend"
       orient="auto"
       refY="0"
       refX="0"
       id="Arrow1Mend-6"
       style="overflow:visible"
       inkscape:isstock="true">
      <path
         inkscape:connector-curvature="0"
         id="path1040-7"
         d="M 0,0 5,-5 -12.5,0 5,5 Z"
         style="fill:#000000;fill-opacity:1;fill-rule:evenodd;stroke:#000000;stroke-width:1.00000003pt;stroke-opacity:1"
         transform="matrix(-0.4,0,0,-0.4,-4,0)" />
    </marker>
  </defs>
  <sodipodi:namedview
     id="base"
     pagecolor="#ffffff"
     bordercolor="#666666"
     borderopacity="1.0"
     inkscape:pageopacity="0.0"
     inkscape:pageshadow="2"
     inkscape:zoom="0.7"
     inkscape:cx="160.75715"
     inkscape:cy="-89.323321"
     inkscape:document-units="mm"
     inkscape:current-layer="layer1"
     showgrid="true"
     inkscape:snap-object-midpoints="true"
     inkscape:window-width="1920"
     inkscape:window-height="1043"
     inkscape:window-x="1920"
     inkscape:window-y="0"
     inkscape:window-maximized="1"
     fit-margin-top="0"
     fit-margin-left="0"
     fit-margin-right="0"
     fit-margin-bottom="0">
    <inkscape:grid
       type="xygrid"
       id="grid1000"
       originx="-11.97872"
       originy="-256.93605" />
  </sodipodi:namedview>
  <metadata
     id="metadata5">
    <rdf:RDF>
      <cc:Work
         rdf:about="">
        <dc:format>image/svg+xml</dc:format>
        <dc:type
           rdf:resource="http://purl.org/dc/dcmitype/StillImage" />
        <dc:title></dc:title>
      </cc:Work>
    </rdf:RDF>
  </metadata>
  <g
     inkscape:label="Layer 1"
     inkscape:groupmode="layer"
     id="layer1"
     transform="translate(-11.97872,-26.028869)">
    <circle
       style="opacity:1;fill:#000000;fill-opacity:1;stroke:#000000;stroke-width:0.80000001;stroke-miterlimit:4;stroke-dasharray:none;stroke-dashoffset:0;stroke-opacity:1"
       id="path815"
       cx="14.552083"
       cy="32.416668"
       r="2.173363" />
    <g
       id="g1027"
       transform="translate(-46.460114,3.4395841)">
      <g
         style="stroke-width:1.61274517"
         transform="matrix(0.16405775,0,0,0.16405775,105.91979,22.589285)"
         id="g994">
        <g
           style="stroke-width:1.61274517"
           id="g933">
	<path
   style="stroke-width:1.61274517"
   inkscape:connector-curvature="0"
   d="m 42.5,22 h -25 c -0.552,0 -1,0.447 -1,1 0,0.553 0.448,1 1,1 h 25 c 0.552,0 1,-0.447 1,-1 0,-0.553 -0.448,-1 -1,-1 z"
   id="path921" />

	<path
   style="stroke-width:1.61274517"
   inkscape:connector-curvature="0"
   d="m 17.5,16 h 10 c 0.552,0 1,-0.447 1,-1 0,-0.553 -0.448,-1 -1,-1 h -10 c -0.552,0 -1,0.447 -1,1 0,0.553 0.448,1 1,1 z"
   id="path923" />

	<path
   style="stroke-width:1.61274517"
   inkscape:connector-curvature="0"
   d="m 42.5,30 h -25 c -0.552,0 -1,0.447 -1,1 0,0.553 0.448,1 1,1 h 25 c 0.552,0 1,-0.447 1,-1 0,-0.553 -0.448,-1 -1,-1 z"
   id="path925" />

	<path
   style="stroke-width:1.61274517"
   inkscape:connector-curvature="0"
   d="m 42.5,38 h -25 c -0.552,0 -1,0.447 -1,1 0,0.553 0.448,1 1,1 h 25 c 0.552,0 1,-0.447 1,-1 0,-0.553 -0.448,-1 -1,-1 z"
   id="path927" />

	<path
   style="stroke-width:1.61274517"
   inkscape:connector-curvature="0"
   d="m 42.5,46 h -25 c -0.552,0 -1,0.447 -1,1 0,0.553 0.448,1 1,1 h 25 c 0.552,0 1,-0.447 1,-1 0,-0.553 -0.448,-1 -1,-1 z"
   id="path929" />

	<path
   style="stroke-width:1.61274517"
   inkscape:connector-curvature="0"
   d="M 38.914,0 H 6.5 v 60 h 47 V 14.586 Z M 39.5,3.414 50.086,14 H 39.5 Z M 8.5,58 V 2 h 29 v 14 h 14 v 42 z"
   id="path931" />

</g>
        <g
           style="stroke-width:1.61274517"
           id="g935">
</g>
        <g
           style="stroke-width:1.61274517"
           id="g937">
</g>
        <g
           style="stroke-width:1.61274517"
           id="g939">
</g>
        <g
           style="stroke-width:1.61274517"
           id="g941">
</g>
        <g
           style="stroke-width:1.61274517"
           id="g943">
</g>
        <g
           style="stroke-width:1.61274517"
           id="g945">
</g>
        <g
           style="stroke-width:1.61274517"
           id="g947">
</g>
        <g
           style="stroke-width:1.61274517"
           id="g949">
</g>
        <g
           style="stroke-width:1.61274517"
           id="g951">
</g>
        <g
           style="stroke-width:1.61274517"
           id="g953">
</g>
        <g
           style="stroke-width:1.61274517"
           id="g955">
</g>
        <g
           style="stroke-width:1.61274517"
           id="g957">
</g>
        <g
           style="stroke-width:1.61274517"
           id="g959">
</g>
        <g
           style="stroke-width:1.61274517"
           id="g961">
</g>
        <g
           style="stroke-width:1.61274517"
           id="g963">
</g>
      </g>
      <text
         id="text998"
         y="36.574402"
         x="98.273811"
         style="font-style:normal;font-weight:normal;font-size:10.58333302px;line-height:1.25;font-family:sans-serif;letter-spacing:0px;word-spacing:0px;fill:#000000;fill-opacity:1;stroke:none;stroke-width:0.26458332"
         xml:space="preserve"><tspan
           style="font-size:3.52777767px;line-height:2;stroke-width:0.26458332"
           y="36.574402"
           x="98.273811"
           id="tspan996"
           sodipodi:role="line">hello-world.md</tspan></text>
    </g>
    <path
       style="opacity:1;fill:#000000;fill-opacity:1;stroke:#000000;stroke-width:0.80000001;stroke-miterlimit:4;stroke-dasharray:none;stroke-dashoffset:0;stroke-opacity:1;marker-end:url(#Arrow1Mend)"
       d="M 15.875,32.416668 H 48.947916"
       id="path1029"
       inkscape:connector-curvature="0" />
  </g>
</svg>
